<svg xmlns="http://www.w3.org/2000/svg" width="1440" height="900"><path d="M757,481L811,505L848,419Z" fill="#9893c5" stroke="#9893c5" stroke-width="1.51"/><path d="M848,419L756,417L757,481Z" fill="#9b97c7" stroke="#9b97c7" stroke-width="1.51"/><path d="M756,417L618,479L757,481Z" fill="#9d99c8" stroke="#9d99c8" stroke-width="1.51"/><path d="M712,681L883,643L811,505Z" fill="#8a86bf" stroke="#8a86bf" stroke-width="1.51"/><path d="M848,419L853,230L756,417Z" fill="#a19ecb" stroke="#a19ecb" stroke-width="1.51"/><path d="M1006,510L991,397L848,419Z" fill="#918dc2" stroke="#918dc2" stroke-width="1.51"/><path d="M811,505L1006,510L848,419Z" fill="#918dc2" stroke="#918dc2" stroke-width="1.51"/><path d="M712,681L811,505L757,481Z" fill="#928ec3" stroke="#928ec3" stroke-width="1.51"/><path d="M979,613L1006,510L811,505Z" fill="#8985be" stroke="#8985be" stroke-width="1.51"/><path d="M756,417L583,398L618,479Z" fill="#a3a1cc" stroke="#a3a1cc" stroke-width="1.51"/><path d="M703,241L583,398L756,417Z" fill="#a9a7cf" stroke="#a9a7cf" stroke-width="1.51"/><path d="M991,397L853,230L848,419Z" fill="#9d9ac9" stroke="#9d9ac9" stroke-width="1.51"/><path d="M853,230L703,241L756,417Z" fill="#aaa7d0" stroke="#aaa7d0" stroke-width="1.51"/><path d="M883,643L979,613L811,505Z" fill="#8783bd" stroke="#8783bd" stroke-width="1.51"/><path d="M612,644L712,681L757,481Z" fill="#928ec3" stroke="#928ec3" stroke-width="1.51"/><path d="M991,397L938,220L853,230Z" fill="#a19fcc" stroke="#a19fcc" stroke-width="1.51"/><path d="M689,160L598,227L703,241Z" fill="#b8b6d8" stroke="#b8b6d8" stroke-width="1.51"/><path d="M618,479L612,644L757,481Z" fill="#9a96c7" stroke="#9a96c7" stroke-width="1.51"/><path d="M436,554L612,644L618,479Z" fill="#9e9ccb" stroke="#9e9ccb" stroke-width="1.51"/><path d="M1006,510L1098,393L991,397Z" fill="#8e87bf" stroke="#8e87bf" stroke-width="1.51"/><path d="M991,397L1103,247L938,220Z" fill="#9c98c9" stroke="#9c98c9" stroke-width="1.51"/><path d="M979,613L1081,549L1006,510Z" fill="#837cba" stroke="#837cba" stroke-width="1.51"/><path d="M712,681L812,748L883,643Z" fill="#857cb9" stroke="#857cb9" stroke-width="1.51"/><path d="M883,643L993,790L979,613Z" fill="#7c74b5" stroke="#7c74b5" stroke-width="1.51"/><path d="M979,613L1122,669L1081,549Z" fill="#7c74b6" stroke="#7c74b6" stroke-width="1.51"/><path d="M757,753L812,748L712,681Z" fill="#8579b8" stroke="#8579b8" stroke-width="1.51"/><path d="M1081,549L1098,393L1006,510Z" fill="#887fbb" stroke="#887fbb" stroke-width="1.51"/><path d="M703,241L598,227L583,398Z" fill="#b2b2d6" stroke="#b2b2d6" stroke-width="1.51"/><path d="M689,160L703,241L853,230Z" fill="#b2b1d4" stroke="#b2b1d4" stroke-width="1.51"/><path d="M580,813L757,753L712,681Z" fill="#897bb9" stroke="#897bb9" stroke-width="1.51"/><path d="M856,124L689,160L853,230Z" fill="#b3b0d5" stroke="#b3b0d5" stroke-width="1.51"/><path d="M938,220L856,124L853,230Z" fill="#acaad2" stroke="#acaad2" stroke-width="1.51"/><path d="M965,122L856,124L938,220Z" fill="#adabd3" stroke="#adabd3" stroke-width="1.51"/><path d="M689,160L622,156L598,227Z" fill="#bcbbda" stroke="#bcbbda" stroke-width="1.51"/><path d="M728,33L622,156L689,160Z" fill="#bfbddb" stroke="#bfbddb" stroke-width="1.51"/><path d="M1098,393L1103,247L991,397Z" fill="#948dc3" stroke="#948dc3" stroke-width="1.51"/><path d="M1068,152L965,122L938,220Z" fill="#a9a4cf" stroke="#a9a4cf" stroke-width="1.51"/><path d="M583,398L436,554L618,479Z" fill="#a7a4ce" stroke="#a7a4ce" stroke-width="1.51"/><path d="M612,644L580,813L712,681Z" fill="#8e83be" stroke="#8e83be" stroke-width="1.51"/><path d="M371,416L436,554L583,398Z" fill="#adacd2" stroke="#adacd2" stroke-width="1.51"/><path d="M430,346L583,398L435,261Z" fill="#b7b7d9" stroke="#b7b7d9" stroke-width="1.51"/><path d="M1081,549L1237,516L1098,393Z" fill="#8478b7" stroke="#8478b7" stroke-width="1.51"/><path d="M1098,393L1226,269L1103,247Z" fill="#958ac2" stroke="#958ac2" stroke-width="1.51"/><path d="M1080,765L1122,669L979,613Z" fill="#776bb0" stroke="#776bb0" stroke-width="1.51"/><path d="M435,261L583,398L598,227Z" fill="#b7b7d9" stroke="#b7b7d9" stroke-width="1.51"/><path d="M812,748L993,790L883,643Z" fill="#7d71b4" stroke="#7d71b4" stroke-width="1.51"/><path d="M857,868L993,790L812,748Z" fill="#7868af" stroke="#7868af" stroke-width="1.51"/><path d="M436,554L470,654L612,644Z" fill="#9c9ac9" stroke="#9c9ac9" stroke-width="1.51"/><path d="M1103,247L1068,152L938,220Z" fill="#a39dcb" stroke="#a39dcb" stroke-width="1.51"/><path d="M472,160L435,261L598,227Z" fill="#c1c1de" stroke="#c1c1de" stroke-width="1.51"/><path d="M993,790L1080,765L979,613Z" fill="#7669af" stroke="#7669af" stroke-width="1.51"/><path d="M757,753L857,868L812,748Z" fill="#7e6eb2" stroke="#7e6eb2" stroke-width="1.51"/><path d="M1135,897L1236,759L1080,765Z" fill="#6b52a4" stroke="#6b52a4" stroke-width="1.51"/><path d="M688,922L857,868L757,753Z" fill="#7d69b0" stroke="#7d69b0" stroke-width="1.51"/><path d="M622,156L472,160L598,227Z" fill="#c0c0dd" stroke="#c0c0dd" stroke-width="1.51"/><path d="M856,124L728,33L689,160Z" fill="#bbb8d9" stroke="#bbb8d9" stroke-width="1.51"/><path d="M830,-9L728,33L856,124Z" fill="#bcb9d9" stroke="#bcb9d9" stroke-width="1.51"/><path d="M830,-9L856,124L965,122Z" fill="#b5b1d7" stroke="#b5b1d7" stroke-width="1.51"/><path d="M470,759L580,813L612,644Z" fill="#9186bf" stroke="#9186bf" stroke-width="1.51"/><path d="M430,346L371,416L583,398Z" fill="#b4b3d6" stroke="#b4b3d6" stroke-width="1.51"/><path d="M335,673L470,759L470,654Z" fill="#9c93c7" stroke="#9c93c7" stroke-width="1.51"/><path d="M348,250L371,416L430,346Z" fill="#bdbddc" stroke="#bdbddc" stroke-width="1.51"/><path d="M1122,669L1237,516L1081,549Z" fill="#7b6fb3" stroke="#7b6fb3" stroke-width="1.51"/><path d="M1103,247L1278,113L1068,152Z" fill="#a195c8" stroke="#a195c8" stroke-width="1.51"/><path d="M1225,671L1237,516L1122,669Z" fill="#7567ae" stroke="#7567ae" stroke-width="1.51"/><path d="M435,261L348,250L430,346Z" fill="#c1c1de" stroke="#c1c1de" stroke-width="1.51"/><path d="M570,4L472,160L622,156Z" fill="#c7c7e1" stroke="#c7c7e1" stroke-width="1.51"/><path d="M470,654L470,759L612,644Z" fill="#978fc5" stroke="#978fc5" stroke-width="1.51"/><path d="M335,673L470,654L436,554Z" fill="#a19ecc" stroke="#a19ecc" stroke-width="1.51"/><path d="M371,416L351,495L436,554Z" fill="#afadd3" stroke="#afadd3" stroke-width="1.51"/><path d="M1237,516L1251,376L1098,393Z" fill="#8778b8" stroke="#8778b8" stroke-width="1.51"/><path d="M983,-38L830,-9L965,122Z" fill="#b6b2d7" stroke="#b6b2d7" stroke-width="1.51"/><path d="M1251,376L1226,269L1098,393Z" fill="#8f81bc" stroke="#8f81bc" stroke-width="1.51"/><path d="M1236,759L1225,671L1122,669Z" fill="#705ca9" stroke="#705ca9" stroke-width="1.51"/><path d="M1237,516L1343,418L1251,376Z" fill="#8370b4" stroke="#8370b4" stroke-width="1.51"/><path d="M580,813L688,922L757,753Z" fill="#8471b4" stroke="#8471b4" stroke-width="1.51"/><path d="M613,924L688,922L580,813Z" fill="#836db3" stroke="#836db3" stroke-width="1.51"/><path d="M189,554L236,641L351,495Z" fill="#b0aed4" stroke="#b0aed4" stroke-width="1.51"/><path d="M472,160L348,250L435,261Z" fill="#c6c6e1" stroke="#c6c6e1" stroke-width="1.51"/><path d="M728,33L570,4L622,156Z" fill="#c5c3df" stroke="#c5c3df" stroke-width="1.51"/><path d="M472,160L340,101L348,250Z" fill="#cccde5" stroke="#cccde5" stroke-width="1.51"/><path d="M687,-99L570,4L728,33Z" fill="#c9c6e0" stroke="#c9c6e0" stroke-width="1.51"/><path d="M430,933L613,924L580,813Z" fill="#8973b6" stroke="#8973b6" stroke-width="1.51"/><path d="M493,1021L598,997L613,924Z" fill="#8267af" stroke="#8267af" stroke-width="1.51"/><path d="M351,495L335,673L436,554Z" fill="#a8a6cf" stroke="#a8a6cf" stroke-width="1.51"/><path d="M236,641L335,673L351,495Z" fill="#aaa7d1" stroke="#aaa7d1" stroke-width="1.51"/><path d="M1121,24L983,-38L965,122Z" fill="#b1aad2" stroke="#b1aad2" stroke-width="1.51"/><path d="M830,-9L687,-99L728,33Z" fill="#c4c1dd" stroke="#c4c1dd" stroke-width="1.51"/><path d="M1121,24L965,122L1068,152Z" fill="#aba3d0" stroke="#aba3d0" stroke-width="1.51"/><path d="M1371,504L1343,418L1237,516Z" fill="#7e69b0" stroke="#7e69b0" stroke-width="1.51"/><path d="M1080,765L1236,759L1122,669Z" fill="#705da9" stroke="#705da9" stroke-width="1.51"/><path d="M1135,897L1080,765L993,790Z" fill="#6e58a7" stroke="#6e58a7" stroke-width="1.51"/><path d="M1017,941L993,790L857,868Z" fill="#705ca9" stroke="#705ca9" stroke-width="1.51"/><path d="M1278,113L1121,24L1068,152Z" fill="#a799cb" stroke="#a799cb" stroke-width="1.51"/><path d="M852,1031L1017,941L857,868Z" fill="#6f55a6" stroke="#6f55a6" stroke-width="1.51"/><path d="M852,1031L857,868L688,922Z" fill="#755ba9" stroke="#755ba9" stroke-width="1.51"/><path d="M1251,376L1403,277L1226,269Z" fill="#8e7cbb" stroke="#8e7cbb" stroke-width="1.51"/><path d="M1226,269L1278,113L1103,247Z" fill="#9b8dc3" stroke="#9b8dc3" stroke-width="1.51"/><path d="M1371,504L1237,516L1378,611Z" fill="#7762ad" stroke="#7762ad" stroke-width="1.51"/><path d="M1017,941L1135,897L993,790Z" fill="#6c52a4" stroke="#6c52a4" stroke-width="1.51"/><path d="M830,-163L687,-99L830,-9Z" fill="#c4c1de" stroke="#c4c1de" stroke-width="1.51"/><path d="M1378,611L1237,516L1225,671Z" fill="#7462ac" stroke="#7462ac" stroke-width="1.51"/><path d="M598,997L702,1017L688,922Z" fill="#7c61ab" stroke="#7c61ab" stroke-width="1.51"/><path d="M598,997L688,922L613,924Z" fill="#8065af" stroke="#8065af" stroke-width="1.51"/><path d="M446,-11L472,160L570,4Z" fill="#cfcee5" stroke="#cfcee5" stroke-width="1.51"/><path d="M446,-11L340,101L472,160Z" fill="#d1d1e7" stroke="#d1d1e7" stroke-width="1.51"/><path d="M189,554L351,495L178,399Z" fill="#b8b6d8" stroke="#b8b6d8" stroke-width="1.51"/><path d="M702,1017L852,1031L688,922Z" fill="#765aa8" stroke="#765aa8" stroke-width="1.51"/><path d="M1017,941L1067,1069L1135,897Z" fill="#64469d" stroke="#64469d" stroke-width="1.51"/><path d="M1403,277L1251,376L1343,418Z" fill="#8874b6" stroke="#8874b6" stroke-width="1.51"/><path d="M1372,129L1278,113L1226,269Z" fill="#9c88c2" stroke="#9c88c2" stroke-width="1.51"/><path d="M441,-109L446,-11L570,4Z" fill="#d5d4e8" stroke="#d5d4e8" stroke-width="1.51"/><path d="M430,933L580,813L470,759Z" fill="#8f7dbb" stroke="#8f7dbb" stroke-width="1.51"/><path d="M1236,759L1378,611L1225,671Z" fill="#6e58a6" stroke="#6e58a6" stroke-width="1.51"/><path d="M1370,810L1378,611L1236,759Z" fill="#684ea1" stroke="#684ea1" stroke-width="1.51"/><path d="M351,495L371,416L178,399Z" fill="#b9b7d8" stroke="#b9b7d8" stroke-width="1.51"/><path d="M336,904L430,933L470,759Z" fill="#937ebc" stroke="#937ebc" stroke-width="1.51"/><path d="M983,-38L986,-119L830,-9Z" fill="#bbb6d9" stroke="#bbb6d9" stroke-width="1.51"/><path d="M1083,-120L986,-119L983,-38Z" fill="#b8b0d7" stroke="#b8b0d7" stroke-width="1.51"/><path d="M1083,-120L983,-38L1121,24Z" fill="#b4aad3" stroke="#b4aad3" stroke-width="1.51"/><path d="M296,795L470,759L335,673Z" fill="#9d90c5" stroke="#9d90c5" stroke-width="1.51"/><path d="M207,732L296,795L335,673Z" fill="#a397c9" stroke="#a397c9" stroke-width="1.51"/><path d="M986,-119L830,-163L830,-9Z" fill="#bfbbdb" stroke="#bfbbdb" stroke-width="1.51"/><path d="M687,-99L602,-146L570,4Z" fill="#cecce3" stroke="#cecce3" stroke-width="1.51"/><path d="M236,641L207,732L335,673Z" fill="#a79fcd" stroke="#a79fcd" stroke-width="1.51"/><path d="M178,399L371,416L194,272Z" fill="#c3c2de" stroke="#c3c2de" stroke-width="1.51"/><path d="M1526,377L1343,418L1371,504Z" fill="#7e66ae" stroke="#7e66ae" stroke-width="1.51"/><path d="M1526,377L1403,277L1343,418Z" fill="#846cb2" stroke="#846cb2" stroke-width="1.51"/><path d="M194,272L371,416L348,250Z" fill="#c4c5e0" stroke="#c4c5e0" stroke-width="1.51"/><path d="M830,-163L602,-146L687,-99Z" fill="#cbc8e1" stroke="#cbc8e1" stroke-width="1.51"/><path d="M852,1031L953,1065L1017,941Z" fill="#684ea0" stroke="#684ea0" stroke-width="1.51"/><path d="M702,1017L953,1065L852,1031Z" fill="#6e51a2" stroke="#6e51a2" stroke-width="1.51"/><path d="M196,150L194,272L348,250Z" fill="#d0d0e6" stroke="#d0d0e6" stroke-width="1.51"/><path d="M986,-119L1083,-120L830,-163Z" fill="#bcb7da" stroke="#bcb7da" stroke-width="1.51"/><path d="M1258,-103L1083,-120L1121,24Z" fill="#b1a2cf" stroke="#b1a2cf" stroke-width="1.51"/><path d="M702,1017L493,1021L953,1065Z" fill="#7559a6" stroke="#7559a6" stroke-width="1.51"/><path d="M598,997L493,1021L702,1017Z" fill="#7e62ac" stroke="#7e62ac" stroke-width="1.51"/><path d="M430,933L493,1021L613,924Z" fill="#876db2" stroke="#876db2" stroke-width="1.51"/><path d="M319,1005L493,1021L430,933Z" fill="#8c70b4" stroke="#8c70b4" stroke-width="1.51"/><path d="M296,795L336,904L470,759Z" fill="#9886c0" stroke="#9886c0" stroke-width="1.51"/><path d="M161,880L336,904L296,795Z" fill="#9c86c1" stroke="#9c86c1" stroke-width="1.51"/><path d="M1278,113L1274,-27L1121,24Z" fill="#a896c9" stroke="#a896c9" stroke-width="1.51"/><path d="M1403,277L1372,129L1226,269Z" fill="#9580bd" stroke="#9580bd" stroke-width="1.51"/><path d="M340,101L196,150L348,250Z" fill="#d3d3e7" stroke="#d3d3e7" stroke-width="1.51"/><path d="M446,-11L324,5L340,101Z" fill="#d7d7ea" stroke="#d7d7ea" stroke-width="1.51"/><path d="M317,-104L324,5L446,-11Z" fill="#dcdcec" stroke="#dcdcec" stroke-width="1.51"/><path d="M77,674L207,732L236,641Z" fill="#aba3cf" stroke="#aba3cf" stroke-width="1.51"/><path d="M1135,897L1274,920L1236,759Z" fill="#64469e" stroke="#64469e" stroke-width="1.51"/><path d="M1239,1055L1274,920L1135,897Z" fill="#5d3a98" stroke="#5d3a98" stroke-width="1.51"/><path d="M602,-146L441,-109L570,4Z" fill="#d4d2e7" stroke="#d4d2e7" stroke-width="1.51"/><path d="M1379,33L1274,-27L1278,113Z" fill="#a48fc5" stroke="#a48fc5" stroke-width="1.51"/><path d="M1378,611L1471,623L1371,504Z" fill="#7059a7" stroke="#7059a7" stroke-width="1.51"/><path d="M1274,920L1370,810L1236,759Z" fill="#63439c" stroke="#63439c" stroke-width="1.51"/><path d="M953,1065L1067,1069L1017,941Z" fill="#64479d" stroke="#64479d" stroke-width="1.51"/><path d="M190,25L196,150L340,101Z" fill="#dcdbec" stroke="#dcdbec" stroke-width="1.51"/><path d="M67,406L112,479L178,399Z" fill="#c3c0dd" stroke="#c3c0dd" stroke-width="1.51"/><path d="M1370,810L1471,623L1378,611Z" fill="#684da2" stroke="#684da2" stroke-width="1.51"/><path d="M189,554L77,674L236,641Z" fill="#b0abd3" stroke="#b0abd3" stroke-width="1.51"/><path d="M178,399L112,479L189,554Z" fill="#bcbada" stroke="#bcbada" stroke-width="1.51"/><path d="M67,406L178,399L194,272Z" fill="#c8c7e1" stroke="#c8c7e1" stroke-width="1.51"/><path d="M1370,810L1525,803L1471,623Z" fill="#61409b" stroke="#61409b" stroke-width="1.51"/><path d="M1274,920L1375,867L1370,810Z" fill="#5e3b98" stroke="#5e3b98" stroke-width="1.51"/><path d="M1370,1013L1375,867L1274,920Z" fill="#593293" stroke="#593293" stroke-width="1.51"/><path d="M1372,129L1379,33L1278,113Z" fill="#9f89c3" stroke="#9f89c3" stroke-width="1.51"/><path d="M1510,92L1379,33L1372,129Z" fill="#9d83c0" stroke="#9d83c0" stroke-width="1.51"/><path d="M1499,224L1372,129L1403,277Z" fill="#927aba" stroke="#927aba" stroke-width="1.51"/><path d="M1274,-27L1258,-103L1121,24Z" fill="#ad9bcc" stroke="#ad9bcc" stroke-width="1.51"/><path d="M1083,-120L1508,-134L830,-163Z" fill="#b4a7d1" stroke="#b4a7d1" stroke-width="1.51"/><path d="M1378,-98L1258,-103L1274,-27Z" fill="#ab95c9" stroke="#ab95c9" stroke-width="1.51"/><path d="M1471,623L1521,524L1371,504Z" fill="#7258a7" stroke="#7258a7" stroke-width="1.51"/><path d="M1613,513L1521,524L1607,645Z" fill="#6c50a1" stroke="#6c50a1" stroke-width="1.51"/><path d="M1521,524L1526,377L1371,504Z" fill="#785eaa" stroke="#785eaa" stroke-width="1.51"/><path d="M1526,377L1499,224L1403,277Z" fill="#896fb4" stroke="#896fb4" stroke-width="1.51"/><path d="M161,880L319,1005L336,904Z" fill="#977dbd" stroke="#977dbd" stroke-width="1.51"/><path d="M336,904L319,1005L430,933Z" fill="#9177b9" stroke="#9177b9" stroke-width="1.51"/><path d="M493,1021L230,1043L953,1065Z" fill="#7f62ac" stroke="#7f62ac" stroke-width="1.51"/><path d="M52,224L67,406L194,272Z" fill="#cfcfe5" stroke="#cfcfe5" stroke-width="1.51"/><path d="M112,479L77,674L189,554Z" fill="#b6b2d7" stroke="#b6b2d7" stroke-width="1.51"/><path d="M207,732L161,880L296,795Z" fill="#a190c6" stroke="#a190c6" stroke-width="1.51"/><path d="M196,150L52,224L194,272Z" fill="#d5d5e9" stroke="#d5d5e9" stroke-width="1.51"/><path d="M324,5L190,25L340,101Z" fill="#dcdcec" stroke="#dcdcec" stroke-width="1.51"/><path d="M441,-109L317,-104L446,-11Z" fill="#dbdbec" stroke="#dbdbec" stroke-width="1.51"/><path d="M220,-148L317,-104L441,-109Z" fill="#e2e1ef" stroke="#e2e1ef" stroke-width="1.51"/><path d="M1067,1069L1239,1055L1135,897Z" fill="#5e3c98" stroke="#5e3c98" stroke-width="1.51"/><path d="M317,-104L190,25L324,5Z" fill="#e1e0ee" stroke="#e1e0ee" stroke-width="1.51"/><path d="M-53,549L77,674L112,479Z" fill="#b9b6d8" stroke="#b9b6d8" stroke-width="1.51"/><path d="M64,748L161,880L207,732Z" fill="#a695c8" stroke="#a695c8" stroke-width="1.51"/><path d="M-38,743L64,748L77,674Z" fill="#aea2cf" stroke="#aea2cf" stroke-width="1.51"/><path d="M80,115L52,224L196,150Z" fill="#dcdbec" stroke="#dcdbec" stroke-width="1.51"/><path d="M1499,224L1510,92L1372,129Z" fill="#977cbc" stroke="#977cbc" stroke-width="1.51"/><path d="M1379,33L1378,-98L1274,-27Z" fill="#a790c7" stroke="#a790c7" stroke-width="1.51"/><path d="M1666,166L1510,92L1499,224Z" fill="#9275b7" stroke="#9275b7" stroke-width="1.51"/><path d="M1258,-103L1508,-134L1083,-120Z" fill="#ad99cb" stroke="#ad99cb" stroke-width="1.51"/><path d="M1503,36L1378,-98L1379,33Z" fill="#a388c2" stroke="#a388c2" stroke-width="1.51"/><path d="M77,674L64,748L207,732Z" fill="#ab9fce" stroke="#ab9fce" stroke-width="1.51"/><path d="M-53,549L112,479L67,406Z" fill="#c2bedc" stroke="#c2bedc" stroke-width="1.51"/><path d="M102,36L80,115L196,150Z" fill="#e0dfee" stroke="#e0dfee" stroke-width="1.51"/><path d="M102,36L196,150L190,25Z" fill="#e1e0ee" stroke="#e1e0ee" stroke-width="1.51"/><path d="M1239,1055L1370,1013L1274,920Z" fill="#573092" stroke="#573092" stroke-width="1.51"/><path d="M1375,867L1525,803L1370,810Z" fill="#5d3897" stroke="#5d3897" stroke-width="1.51"/><path d="M1486,929L1525,803L1375,867Z" fill="#593093" stroke="#593093" stroke-width="1.51"/><path d="M1521,524L1613,513L1526,377Z" fill="#7559a7" stroke="#7559a7" stroke-width="1.51"/><path d="M1526,377L1627,268L1499,224Z" fill="#866bb1" stroke="#866bb1" stroke-width="1.51"/><path d="M1607,645L1521,524L1471,623Z" fill="#6a50a2" stroke="#6a50a2" stroke-width="1.51"/><path d="M1510,92L1503,36L1379,33Z" fill="#9d81bf" stroke="#9d81bf" stroke-width="1.51"/><path d="M1611,0L1503,36L1510,92Z" fill="#9b7ebc" stroke="#9b7ebc" stroke-width="1.51"/><path d="M48,-146L102,36L190,25Z" fill="#e9e7f2" stroke="#e9e7f2" stroke-width="1.51"/><path d="M1613,513L1614,351L1526,377Z" fill="#7a5da9" stroke="#7a5da9" stroke-width="1.51"/><path d="M161,880L230,1043L319,1005Z" fill="#977bbb" stroke="#977bbb" stroke-width="1.51"/><path d="M319,1005L230,1043L493,1021Z" fill="#8d70b4" stroke="#8d70b4" stroke-width="1.51"/><path d="M953,1065L-186,1066L1067,1069Z" fill="#7a5da8" stroke="#7a5da8" stroke-width="1.51"/><path d="M98,1011L230,1043L161,880Z" fill="#9a7ebc" stroke="#9a7ebc" stroke-width="1.51"/><path d="M1525,803L1607,645L1471,623Z" fill="#63449c" stroke="#63449c" stroke-width="1.51"/><path d="M1525,803L1597,796L1607,645Z" fill="#5c3996" stroke="#5c3996" stroke-width="1.51"/><path d="M1370,1013L1486,929L1375,867Z" fill="#562b91" stroke="#562b91" stroke-width="1.51"/><path d="M317,-104L220,-148L190,25Z" fill="#e5e4f0" stroke="#e5e4f0" stroke-width="1.51"/><path d="M602,-146L220,-148L441,-109Z" fill="#dddcec" stroke="#dddcec" stroke-width="1.51"/><path d="M830,-163L220,-148L602,-146Z" fill="#d5d4e8" stroke="#d5d4e8" stroke-width="1.51"/><path d="M1627,268L1614,351L1746,265Z" fill="#8264ad" stroke="#8264ad" stroke-width="1.51"/><path d="M1666,166L1627,268L1746,265Z" fill="#8768af" stroke="#8768af" stroke-width="1.51"/><path d="M1614,351L1627,268L1526,377Z" fill="#8164ae" stroke="#8164ae" stroke-width="1.51"/><path d="M52,224L-30,279L67,406Z" fill="#d2d2e7" stroke="#d2d2e7" stroke-width="1.51"/><path d="M-48,132L-30,279L52,224Z" fill="#dcdcec" stroke="#dcdcec" stroke-width="1.51"/><path d="M-48,132L52,224L80,115Z" fill="#e0dfee" stroke="#e0dfee" stroke-width="1.51"/><path d="M35,936L98,1011L161,880Z" fill="#9f83c0" stroke="#9f83c0" stroke-width="1.51"/><path d="M-87,413L-53,549L67,406Z" fill="#c6c3de" stroke="#c6c3de" stroke-width="1.51"/><path d="M1588,863L1597,796L1525,803Z" fill="#572f91" stroke="#572f91" stroke-width="1.51"/><path d="M1486,929L1588,863L1525,803Z" fill="#562c90" stroke="#562c90" stroke-width="1.51"/><path d="M1636,1025L1588,863L1486,929Z" fill="#4f1f8a" stroke="#4f1f8a" stroke-width="1.51"/><path d="M-53,549L-63,656L77,674Z" fill="#b7b1d7" stroke="#b7b1d7" stroke-width="1.51"/><path d="M-162,652L-63,656L-53,549Z" fill="#b9b5d8" stroke="#b9b5d8" stroke-width="1.51"/><path d="M-63,656L-38,743L77,674Z" fill="#b3a8d2" stroke="#b3a8d2" stroke-width="1.51"/><path d="M-30,279L-87,413L67,406Z" fill="#cecce3" stroke="#cecce3" stroke-width="1.51"/><path d="M35,936L161,880L64,748Z" fill="#a48ec5" stroke="#a48ec5" stroke-width="1.51"/><path d="M-38,743L35,936L64,748Z" fill="#aa97ca" stroke="#aa97ca" stroke-width="1.51"/><path d="M-30,279L-186,225L-87,413Z" fill="#d6d5e9" stroke="#d6d5e9" stroke-width="1.51"/><path d="M102,36L-48,132L80,115Z" fill="#e4e3f0" stroke="#e4e3f0" stroke-width="1.51"/><path d="M-28,-46L-48,132L102,36Z" fill="#e9e8f2" stroke="#e9e8f2" stroke-width="1.51"/><path d="M1627,268L1666,166L1499,224Z" fill="#8b6eb3" stroke="#8b6eb3" stroke-width="1.51"/><path d="M1503,36L1508,-134L1378,-98Z" fill="#a488c2" stroke="#a488c2" stroke-width="1.51"/><path d="M1795,417L1614,351L1613,513Z" fill="#7556a4" stroke="#7556a4" stroke-width="1.51"/><path d="M1746,526L1613,513L1607,645Z" fill="#684b9f" stroke="#684b9f" stroke-width="1.51"/><path d="M1597,-92L1508,-134L1503,36Z" fill="#a283bf" stroke="#a283bf" stroke-width="1.51"/><path d="M1378,-98L1508,-134L1258,-103Z" fill="#a990c7" stroke="#a990c7" stroke-width="1.51"/><path d="M1370,1013L1495,1053L1486,929Z" fill="#50218b" stroke="#50218b" stroke-width="1.51"/><path d="M1239,1055L1495,1053L1370,1013Z" fill="#52258c" stroke="#52258c" stroke-width="1.51"/><path d="M1067,1069L1495,1053L1239,1055Z" fill="#552d8f" stroke="#552d8f" stroke-width="1.51"/><path d="M1666,166L1611,0L1510,92Z" fill="#9778b8" stroke="#9778b8" stroke-width="1.51"/><path d="M1788,667L1746,526L1607,645Z" fill="#62459b" stroke="#62459b" stroke-width="1.51"/><path d="M1788,667L1607,645L1597,796Z" fill="#5d3a96" stroke="#5d3a96" stroke-width="1.51"/><path d="M1666,166L1724,88L1611,0Z" fill="#9474b6" stroke="#9474b6" stroke-width="1.51"/><path d="M1795,417L1746,265L1614,351Z" fill="#7c5da9" stroke="#7c5da9" stroke-width="1.51"/><path d="M1731,-114L1597,-92L1611,0Z" fill="#9e7dbb" stroke="#9e7dbb" stroke-width="1.51"/><path d="M1611,0L1597,-92L1503,36Z" fill="#9e7fbd" stroke="#9e7fbd" stroke-width="1.51"/><path d="M220,-148L48,-146L190,25Z" fill="#eae9f3" stroke="#eae9f3" stroke-width="1.51"/><path d="M-92,-151L48,-146L220,-148Z" fill="#f0eff6" stroke="#f0eff6" stroke-width="1.51"/><path d="M48,-146L-28,-46L102,36Z" fill="#edebf4" stroke="#edebf4" stroke-width="1.51"/><path d="M-206,503L-53,549L-87,413Z" fill="#c6c2de" stroke="#c6c2de" stroke-width="1.51"/><path d="M-38,743L-95,937L35,936Z" fill="#a890c7" stroke="#a890c7" stroke-width="1.51"/><path d="M-63,656L-155,761L-38,743Z" fill="#b3a6d1" stroke="#b3a6d1" stroke-width="1.51"/><path d="M-206,503L-162,652L-53,549Z" fill="#bfbbdb" stroke="#bfbbdb" stroke-width="1.51"/><path d="M-206,503L-87,413L-218,423Z" fill="#cbc8e1" stroke="#cbc8e1" stroke-width="1.51"/><path d="M1746,265L1724,88L1666,166Z" fill="#8c6db2" stroke="#8c6db2" stroke-width="1.51"/><path d="M1746,526L1795,417L1613,513Z" fill="#6f50a1" stroke="#6f50a1" stroke-width="1.51"/><path d="M1746,265L1783,-33L1724,88Z" fill="#9271b4" stroke="#9271b4" stroke-width="1.51"/><path d="M-162,652L-155,761L-63,656Z" fill="#b6acd4" stroke="#b6acd4" stroke-width="1.51"/><path d="M35,936L-63,1007L98,1011Z" fill="#a081bf" stroke="#a081bf" stroke-width="1.51"/><path d="M1785,807L1788,667L1597,796Z" fill="#573191" stroke="#573191" stroke-width="1.51"/><path d="M1746,526L1788,667L1795,417Z" fill="#694b9f" stroke="#694b9f" stroke-width="1.51"/><path d="M1785,807L1597,796L1588,863Z" fill="#542a8e" stroke="#542a8e" stroke-width="1.51"/><path d="M-162,652L-193,864L-155,761Z" fill="#b2a2cf" stroke="#b2a2cf" stroke-width="1.51"/><path d="M-186,225L-30,279L-48,132Z" fill="#dedeed" stroke="#dedeed" stroke-width="1.51"/><path d="M1495,1053L1636,1025L1486,929Z" fill="#4c1b88" stroke="#4c1b88" stroke-width="1.51"/><path d="M-200,109L-186,225L-48,132Z" fill="#e5e5f0" stroke="#e5e5f0" stroke-width="1.51"/><path d="M-155,761L-95,937L-38,743Z" fill="#ad99cb" stroke="#ad99cb" stroke-width="1.51"/><path d="M-186,225L-218,423L-87,413Z" fill="#d3d2e7" stroke="#d3d2e7" stroke-width="1.51"/><path d="M-95,937L-63,1007L35,936Z" fill="#a386c1" stroke="#a386c1" stroke-width="1.51"/><path d="M98,1011L-186,1066L230,1043Z" fill="#9b7cbb" stroke="#9b7cbb" stroke-width="1.51"/><path d="M1795,934L1785,807L1588,863Z" fill="#4f218a" stroke="#4f218a" stroke-width="1.51"/><path d="M1788,667L1795,934L1795,417Z" fill="#5e3d97" stroke="#5e3d97" stroke-width="1.51"/><path d="M-186,225L-200,109L-218,423Z" fill="#dedded" stroke="#dedded" stroke-width="1.51"/><path d="M-205,15L-200,109L-48,132Z" fill="#ebeaf4" stroke="#ebeaf4" stroke-width="1.51"/><path d="M-205,15L-48,132L-28,-46Z" fill="#edebf4" stroke="#edebf4" stroke-width="1.51"/><path d="M48,-146L-92,-151L-28,-46Z" fill="#f2f1f7" stroke="#f2f1f7" stroke-width="1.51"/><path d="M830,-163L-92,-151L220,-148Z" fill="#e3e3f0" stroke="#e3e3f0" stroke-width="1.51"/><path d="M-155,761L-193,864L-95,937Z" fill="#ac95c9" stroke="#ac95c9" stroke-width="1.51"/><path d="M-95,937L-186,1066L-63,1007Z" fill="#a384bf" stroke="#a384bf" stroke-width="1.51"/><path d="M-206,503L-193,864L-162,652Z" fill="#b9afd6" stroke="#b9afd6" stroke-width="1.51"/><path d="M-218,423L-193,864L-206,503Z" fill="#bebadb" stroke="#bebadb" stroke-width="1.51"/><path d="M1783,-33L1611,0L1724,88Z" fill="#9776b7" stroke="#9776b7" stroke-width="1.51"/><path d="M1783,-33L1731,-114L1611,0Z" fill="#9b79b9" stroke="#9b79b9" stroke-width="1.51"/><path d="M1597,-92L1731,-114L1508,-134Z" fill="#a081be" stroke="#a081be" stroke-width="1.51"/><path d="M1795,417L1783,-33L1746,265Z" fill="#8869b0" stroke="#8869b0" stroke-width="1.51"/><path d="M-92,-151L-205,15L-28,-46Z" fill="#f2f1f7" stroke="#f2f1f7" stroke-width="1.51"/><path d="M-200,109L-205,15L-218,423Z" fill="#e5e4f1" stroke="#e5e4f1" stroke-width="1.51"/><path d="M1636,1025L1795,934L1588,863Z" fill="#4a1886" stroke="#4a1886" stroke-width="1.51"/><path d="M1785,807L1795,934L1788,667Z" fill="#542b8e" stroke="#542b8e" stroke-width="1.51"/><path d="M1636,1025L1755,1067L1795,934Z" fill="#450d82" stroke="#450d82" stroke-width="1.51"/><path d="M1495,1053L1755,1067L1636,1025Z" fill="#460e82" stroke="#460e82" stroke-width="1.51"/><path d="M1067,1069L1755,1067L1495,1053Z" fill="#4d1b88" stroke="#4d1b88" stroke-width="1.51"/><path d="M-193,864L-186,1066L-95,937Z" fill="#a789c3" stroke="#a789c3" stroke-width="1.51"/><path d="M-63,1007L-186,1066L98,1011Z" fill="#9f80bd" stroke="#9f80bd" stroke-width="1.51"/><path d="M230,1043L-186,1066L953,1065Z" fill="#8c6eb3" stroke="#8c6eb3" stroke-width="1.51"/><path d="M-218,423L-186,1066L-193,864Z" fill="#b2a0cf" stroke="#b2a0cf" stroke-width="1.51"/><path d="M-92,-151L-216,-135L-205,15Z" fill="#f5f4f9" stroke="#f5f4f9" stroke-width="1.51"/><path d="M-205,15L-216,-135L-218,423Z" fill="#ebebf4" stroke="#ebebf4" stroke-width="1.51"/></svg>